<?xml version="1.0" encoding="UTF-8" standalone="no" ?>
<!-- Created with Inkscape (http://www.inkscape.org/) -->

<svg xmlns:dc="http://purl.org/dc/elements/1.1/" xmlns:cc="http://creativecommons.org/ns#" xmlns:rdf="http://www.w3.org/1999/02/22-rdf-syntax-ns#" xmlns:svg="http://www.w3.org/2000/svg" xmlns="http://www.w3.org/2000/svg" xmlns:xlink="http://www.w3.org/1999/xlink" xmlns:sodipodi="http://sodipodi.sourceforge.net/DTD/sodipodi-0.dtd" xmlns:inkscape="http://www.inkscape.org/namespaces/inkscape" width="202.97775mm" height="48.822865mm" viewBox="0 0 202.97775 48.822865" version="1.1" id="svg8" inkscape:version="0.92.4 5da689c313, 2019-01-14" sodipodi:docname="readme-banner.svg">
   <defs id="defs2">
      <linearGradient inkscape:collect="always" id="linearGradient1028">
         <stop style="stop-color:#ff6802;stop-opacity:1;" offset="0" id="stop1024" />
         <stop style="stop-color:#ff9500;stop-opacity:1" offset="1" id="stop1026" />
      </linearGradient>
      <linearGradient inkscape:collect="always" xlink:href="#linearGradient1028" id="linearGradient1030" x1="94.96151" y1="78.490593" x2="119.91248" y2="30.487616" gradientUnits="userSpaceOnUse" />
   </defs>
   <sodipodi:namedview id="base" pagecolor="#ffffff" bordercolor="#666666" borderopacity="1.0" inkscape:pageopacity="0.0" inkscape:pageshadow="2" inkscape:zoom="0.98994949" inkscape:cx="582.87578" inkscape:cy="40.368404" inkscape:document-units="mm" inkscape:current-layer="layer2" showgrid="false" showguides="false" fit-margin-top="0" fit-margin-left="0" fit-margin-right="0" fit-margin-bottom="0" inkscape:window-width="1920" inkscape:window-height="979" inkscape:window-x="0" inkscape:window-y="36" inkscape:window-maximized="1" />
   <metadata id="metadata5">
      <rdf:RDF>
         <cc:Work rdf:about="">
            <dc:format>image/svg+xml</dc:format>
            <dc:type rdf:resource="http://purl.org/dc/dcmitype/StillImage" />
            <dc:title></dc:title>
         </cc:Work>
      </rdf:RDF>
   </metadata>
   <g inkscape:groupmode="layer" id="layer2" inkscape:label="The Background Layer" transform="translate(-1.9793636,-32.534519)">
      <rect style="fill:url(#linearGradient1030);fill-opacity:1;stroke:none;stroke-width:0.10128117;stroke-miterlimit:4;stroke-dasharray:none" id="rect852" width="202.97775" height="48.822865" x="1.9793636" y="32.534519" />
   </g>
   <g inkscape:label="The Foreground Layer" inkscape:groupmode="layer" id="layer1" transform="translate(-1.9793636,-32.534519)">
      <g id="g838" transform="matrix(0.95257214,0,0,0.95257214,-9.0149178,6.2585854)" style="fill:#ffffff">
         <path d="m 27.539067,45.704842 c 3.844367,0 6.445818,-2.167876 6.445818,-6.098958 0,-3.959987 -2.601451,-6.127863 -6.445818,-6.127863 h -7.77545 V 51.2257 h 4.595898 v -5.520858 z m 1.936636,-6.098958 c 0,1.329631 -0.751531,2.225686 -2.428022,2.225686 h -2.688166 v -4.451372 h 2.688166 c 1.676491,0 2.428022,0.86715 2.428022,2.225686 z" style="font-style:normal;font-variant:normal;font-weight:bold;font-stretch:normal;font-size:28.90501595px;line-height:1.25;font-family:Calibre;-inkscape-font-specification:'Calibre Bold';letter-spacing:0px;word-spacing:0px;fill:#ffffff;stroke-width:0.72262537" id="path821" inkscape:connector-curvature="0" />
         <path d="m 44.592995,38.160633 c -0.202335,-0.11562 -0.664815,-0.23124 -1.242916,-0.23124 -1.300725,0 -2.312401,0.5781 -2.948311,1.445251 V 38.218443 H 35.86368 V 51.2257 h 4.538088 v -7.630924 c 0.23124,-0.92496 1.069485,-1.474156 2.312401,-1.474156 0.722625,0 1.329631,0.11562 1.878826,0.404671 z" style="font-style:normal;font-variant:normal;font-weight:bold;font-stretch:normal;font-size:28.90501595px;line-height:1.25;font-family:Calibre;-inkscape-font-specification:'Calibre Bold';letter-spacing:0px;word-spacing:0px;fill:#ffffff;stroke-width:0.72262537" id="path823" inkscape:connector-curvature="0" />
         <path d="m 27.539067,65.531391 c 3.844367,0 6.445818,-2.167876 6.445818,-6.098958 0,-3.959988 -2.601451,-6.127864 -6.445818,-6.127864 h -7.77545 v 17.74768 h 4.595898 v -5.520858 z m 1.936636,-6.098958 c 0,1.32963 -0.751531,2.225686 -2.428022,2.225686 h -2.688166 v -4.451373 h 2.688166 c 1.676491,0 2.428022,0.867151 2.428022,2.225687 z" style="font-style:normal;font-variant:normal;font-weight:bold;font-stretch:normal;font-size:28.90501595px;line-height:1.25;font-family:Calibre;-inkscape-font-specification:'Calibre Bold';letter-spacing:0px;word-spacing:0px;fill:#ffffff;stroke-width:0.72262537" id="path825" inkscape:connector-curvature="0" />
         <path d="m 47.021016,71.052249 3.670937,-10.550331 v 10.550331 h 4.364658 V 53.304569 H 49.420133 L 45.546861,64.346285 41.644684,53.304569 H 35.9793 v 17.74768 h 4.335753 V 60.501918 l 3.699842,10.550331 z" style="font-style:normal;font-variant:normal;font-weight:bold;font-stretch:normal;font-size:28.90501595px;line-height:1.25;font-family:Calibre;-inkscape-font-specification:'Calibre Bold';letter-spacing:0px;word-spacing:0px;fill:#ffffff;stroke-width:0.72262537" id="path827" inkscape:connector-curvature="0" />
      </g>
      <g id="g973" transform="translate(-10.961309,2.6458333)">
         <path sodipodi:nodetypes="ccccccccc" d="M 76.713445,52.49611 V 41.442167 h -3.93848 v -1.359226 h 9.367194 v 1.359226 H 78.187304 V 52.49611 Z" style="font-style:normal;font-variant:normal;font-weight:normal;font-stretch:normal;font-size:16.76924133px;line-height:1.25;font-family:'Benton Sans';-inkscape-font-specification:'Benton Sans';letter-spacing:0px;word-spacing:0px;fill:#ffffff;stroke-width:0.41923103" id="path860" inkscape:connector-curvature="0" />
         <path sodipodi:nodetypes="cccccccscsccscscccc" d="M 83.959919,52.49611 V 40.082941 h 1.457483 v 4.880112 c 0.191055,-0.185598 0.403946,-0.368465 0.638672,-0.548603 0.234726,-0.185598 0.491287,-0.34936 0.769682,-0.491287 0.272937,-0.136468 0.567708,-0.248372 0.884315,-0.335712 0.322066,-0.08734 0.663237,-0.13101 1.023514,-0.13101 0.851563,0 1.501152,0.231996 1.948769,0.695989 0.447617,0.458534 0.671425,1.110853 0.671425,1.956958 v 6.386722 h -1.441107 v -6.067386 c 0,-0.595003 -0.13101,-1.031702 -0.393029,-1.310097 -0.262019,-0.278396 -0.674154,-0.417594 -1.236404,-0.417594 -0.529497,0 -1.026242,0.12828 -1.490235,0.384841 -0.458534,0.25656 -0.917068,0.60319 -1.375602,1.03989 v 6.370346 z" style="font-style:normal;font-variant:normal;font-weight:normal;font-stretch:normal;font-size:16.76924133px;line-height:1.25;font-family:'Benton Sans';-inkscape-font-specification:'Benton Sans';letter-spacing:0px;word-spacing:0px;fill:#ffffff;stroke-width:0.41923103" id="path862" inkscape:connector-curvature="0" />
         <path sodipodi:nodetypes="scccscccscccscccccsccccccsccccsccccc" d="m 97.322908,52.684437 c -0.524039,0 -1.028972,-0.09553 -1.5148,-0.286584 -0.480369,-0.191056 -0.90615,-0.480369 -1.277344,-0.867939 -0.371195,-0.382112 -0.668696,-0.862481 -0.892504,-1.441107 -0.218349,-0.578626 -0.327524,-1.25278 -0.327524,-2.022462 0,-0.802435 0.120092,-1.492965 0.360276,-2.071591 0.245643,-0.584085 0.56225,-1.064454 0.949821,-1.441107 0.382111,-0.376653 0.810622,-0.652319 1.285532,-0.826998 0.474911,-0.180139 0.947092,-0.270208 1.416543,-0.270208 0.524039,0 1.009866,0.09553 1.457483,0.286584 0.453075,0.185597 0.843374,0.469451 1.170899,0.851563 0.32753,0.38757 0.58409,0.876127 0.76968,1.465671 0.19106,0.584084 0.28659,2.882213 0.28659,2.079779 v 0.294772 h -6.255718 c 0.01092,0.502203 0.08734,0.944361 0.229267,1.326473 0.147386,0.382111 0.341171,0.701447 0.581356,0.958008 0.234725,0.25656 0.510392,0.453075 0.826999,0.589544 0.322065,0.13101 0.665966,0.196515 1.031701,0.196515 0.316607,0 0.60319,-0.03002 0.859751,-0.09007 0.256561,-0.06551 0.491286,-0.161035 0.704177,-0.286583 0.212891,-0.120093 0.406676,-0.270208 0.581356,-0.450346 0.180138,-0.180139 0.354818,-0.384842 0.524041,-0.614108 l 0.83518,0.736929 c -0.4094,0.589544 -0.90614,1.050807 -1.490231,1.38379 -0.584085,0.332983 -1.288262,0.499475 -2.112531,0.499475 z m 2.309046,-5.371398 c -0.02729,-0.393029 -0.09553,-0.750576 -0.204703,-1.072642 -0.109175,-0.327524 -0.25929,-0.608649 -0.450346,-0.843375 -0.196515,-0.229267 -0.43397,-0.406676 -0.712365,-0.532227 -0.272937,-0.13101 -0.592273,-0.196514 -0.958008,-0.196514 -0.300231,0 -0.592273,0.05186 -0.876128,0.155574 -0.278395,0.103716 -0.529497,0.264748 -0.753306,0.483098 -0.229267,0.218349 -0.423052,0.494015 -0.581355,0.826999 -0.158303,0.327524 -0.262019,0.720553 -0.311148,1.179087 z" style="font-style:normal;font-variant:normal;font-weight:normal;font-stretch:normal;font-size:16.76924133px;line-height:1.25;font-family:'Benton Sans';-inkscape-font-specification:'Benton Sans';letter-spacing:0px;word-spacing:0px;fill:#ffffff;stroke-width:0.41923103" id="path864" inkscape:connector-curvature="0" />
         <path sodipodi:nodetypes="cccccscscccscscssccccsscccscccccccc" d="M 106.73923,55.853234 V 43.554698 h 2.70208 v 1.359226 c 0.14738,-0.201974 0.31114,-0.395759 0.49128,-0.581355 0.18014,-0.185598 0.38211,-0.34936 0.60592,-0.491287 0.22381,-0.141928 0.47218,-0.253832 0.74512,-0.335712 0.27293,-0.08734 0.57589,-0.13101 0.90888,-0.13101 0.50766,0 0.97165,0.09826 1.39198,0.294772 0.42032,0.191056 0.78333,0.480369 1.08902,0.867939 0.30023,0.38757 0.53222,0.873398 0.69598,1.457483 0.16923,0.578626 0.25384,1.25278 0.25384,2.022462 0,0.769682 -0.0846,1.443836 -0.25384,2.022463 -0.16922,0.578626 -0.40667,1.058994 -0.71236,1.441106 -0.30569,0.382112 -0.67142,0.668695 -1.09721,0.859751 -0.42578,0.191056 -0.89523,0.286584 -1.40835,0.286584 -0.60592,0 -1.1245,-0.103716 -1.55574,-0.311148 -0.43124,-0.207432 -0.81608,-0.499475 -1.15452,-0.876127 v 4.413389 z m 4.49527,-5.248576 c 0.56225,0 0.98531,-0.223809 1.26916,-0.671425 0.28385,-0.447617 0.42578,-1.08083 0.42578,-1.89964 0,-0.371195 -0.0355,-0.706908 -0.10645,-1.007138 -0.0655,-0.30023 -0.16652,-0.556791 -0.30296,-0.769682 -0.14193,-0.207432 -0.32206,-0.368465 -0.54041,-0.483098 -0.21835,-0.114634 -0.47764,-0.17195 -0.77787,-0.17195 -0.17468,0 -0.3439,0.02456 -0.50766,0.07369 -0.15831,0.04913 -0.31115,0.111902 -0.45854,0.188326 -0.15285,0.08188 -0.29477,0.177409 -0.42578,0.286584 -0.13101,0.103716 -0.25383,0.21289 -0.36846,0.327524 v 3.299807 c 0.28931,0.278396 0.57044,0.485828 0.84337,0.622296 0.27294,0.136468 0.58955,0.204703 0.94982,0.204703 z" style="font-style:normal;font-variant:normal;font-weight:bold;font-stretch:normal;font-size:16.76924133px;line-height:1.25;font-family:'Benton Sans';-inkscape-font-specification:'Benton Sans Bold';letter-spacing:0px;word-spacing:0px;fill:#ffffff;stroke-width:0.41923103" id="path866" inkscape:connector-curvature="0" />
         <path sodipodi:nodetypes="ccccccccscccccssccccc" d="m 117.20363,52.49611 v -8.941412 h 2.70207 v 1.498424 h 0.0164 c 0.12009,-0.185598 0.26475,-0.376654 0.43397,-0.573168 0.17468,-0.201973 0.38484,-0.384841 0.63048,-0.548603 0.24019,-0.163762 0.51858,-0.297501 0.83519,-0.401217 0.32207,-0.103716 1.04303,0.258782 1.11358,-0.155574 h 0.0901 l -0.0409,2.399115 c -0.0273,-0.0055 -0.0709,-0.01093 -0.13101,-0.01638 -0.0601,-0.0055 -0.12557,-0.01093 -0.19651,-0.01638 -0.071,-0.0055 -0.14193,-0.0082 -0.21289,-0.0082 -0.0655,-0.0055 -0.12012,-0.0082 -0.16377,-0.0082 -0.26747,0 -0.51857,0.03275 -0.7533,0.09826 -0.23473,0.06551 -0.45035,0.152846 -0.64686,0.262019 -0.20197,0.114633 -0.38484,0.245643 -0.54861,0.393029 -0.1583,0.147386 -0.30023,0.30296 -0.42578,0.466722 v 5.551536 z" style="font-style:normal;font-variant:normal;font-weight:bold;font-stretch:normal;font-size:16.76924133px;line-height:1.25;font-family:'Benton Sans';-inkscape-font-specification:'Benton Sans Bold';letter-spacing:0px;word-spacing:0px;fill:#ffffff;stroke-width:0.41923103" id="path868" inkscape:connector-curvature="0" />
         <path sodipodi:nodetypes="scccccscccccscccccscccscsccccscccscccsccccc" d="m 128.14294,52.684437 c -0.36028,0 -0.72602,-0.03548 -1.09721,-0.106446 -0.36573,-0.06551 -0.71782,-0.174682 -1.05626,-0.327524 -0.33845,-0.152845 -0.65505,-0.349359 -0.94982,-0.589543 -0.29477,-0.240185 -0.55134,-0.532228 -0.76969,-0.876128 -0.21835,-0.343901 -0.3903,-0.742389 -0.51585,-1.195463 -0.12555,-0.458534 -0.18832,-0.977114 -0.18832,-1.55574 0,-0.584086 0.0628,-1.105395 0.18832,-1.563929 0.12555,-0.458534 0.2975,-0.859751 0.51585,-1.203651 0.21289,-0.343901 0.46673,-0.635944 0.7615,-0.876128 0.29477,-0.240184 0.61411,-0.436699 0.95801,-0.589543 0.33844,-0.147386 0.69053,-0.253832 1.05626,-0.319336 0.36573,-0.07096 0.73147,-0.106446 1.09721,-0.106446 0.36027,0 0.72328,0.03548 1.08902,0.106446 0.36573,0.06551 0.71782,0.171952 1.05626,0.319336 0.33844,0.152844 0.65232,0.349359 0.94163,0.589543 0.29477,0.240184 0.55134,0.532227 0.76969,0.876128 0.21835,0.3439 0.3903,0.745117 0.51585,1.203651 0.12555,0.458534 0.18832,0.979843 0.18832,1.563929 0,0.578626 -0.0628,1.097206 -0.18832,1.55574 -0.12555,0.453074 -0.2975,0.851562 -0.51585,1.195463 -0.21835,0.3439 -0.47492,0.635943 -0.76969,0.876128 -0.28931,0.240184 -0.60319,0.436698 -0.94163,0.589543 -0.33844,0.152844 -0.69053,0.262019 -1.05626,0.327524 -0.36574,0.07096 -0.72875,0.106446 -1.08902,0.106446 z m 0,-1.899641 c 0.31661,0 0.59227,-0.06551 0.827,-0.196514 0.23473,-0.13101 0.42851,-0.316608 0.58135,-0.556792 0.15285,-0.240184 0.26475,-0.526768 0.33571,-0.859751 0.0764,-0.338442 0.11464,-0.712365 0.11464,-1.12177 0,-0.371194 -0.0355,-0.720554 -0.10645,-1.048078 -0.0655,-0.327524 -0.17198,-0.614108 -0.31933,-0.859751 -0.15285,-0.240185 -0.34663,-0.431241 -0.58136,-0.573167 -0.23473,-0.141928 -0.51858,-0.212891 -0.85156,-0.212891 -0.32207,0 -0.60319,0.0655 -0.84338,0.196514 -0.23473,0.13101 -0.42851,0.313877 -0.58135,0.548603 -0.15831,0.234726 -0.27567,0.51858 -0.35209,0.851564 -0.071,0.332982 -0.10645,0.698718 -0.10645,1.097206 0,0.376652 0.0328,0.73147 0.0983,1.064454 0.071,0.327524 0.18014,0.614107 0.32752,0.859751 0.14739,0.251102 0.34117,0.450345 0.58136,0.597731 0.24019,0.141927 0.53223,0.212891 0.87613,0.212891 z" style="font-style:normal;font-variant:normal;font-weight:bold;font-stretch:normal;font-size:16.76924133px;line-height:1.25;font-family:'Benton Sans';-inkscape-font-specification:'Benton Sans Bold';letter-spacing:0px;word-spacing:0px;fill:#ffffff;stroke-width:0.41923103" id="path870" inkscape:connector-curvature="0" />
         <path sodipodi:nodetypes="ccccscccccscccccscccsccccccccccscccssccsccccccssccccscccscccscccscccsccccssccccccsccccc" d="m 137.78034,55.853234 c -0.8734,0 -1.60487,-0.0464 -2.19441,-0.139198 -0.58955,-0.0928 -1.06446,-0.223809 -1.42473,-0.393029 -0.36028,-0.17468 -0.61957,-0.38757 -0.77788,-0.638672 -0.15284,-0.251102 -0.22926,-0.532227 -0.22926,-0.843375 0,-0.21835 0.0409,-0.420323 0.12282,-0.60592 0.0873,-0.180139 0.20197,-0.343901 0.3439,-0.491286 0.13647,-0.147386 0.2975,-0.278396 0.4831,-0.39303 0.18559,-0.120092 0.38211,-0.221079 0.58954,-0.302959 -0.19105,-0.125552 -0.34117,-0.275667 -0.45034,-0.450346 -0.10372,-0.180139 -0.15558,-0.387571 -0.15558,-0.622296 0,-0.185598 0.0328,-0.363007 0.0983,-0.532227 0.071,-0.169222 0.16649,-0.332984 0.28658,-0.491287 0.11463,-0.152845 0.2511,-0.297501 0.40941,-0.433969 0.1583,-0.136469 0.32479,-0.26202 0.49947,-0.376653 -0.49129,-0.283855 -0.85975,-0.646861 -1.10539,-1.089018 -0.24565,-0.442158 -0.36847,-0.933445 -0.36847,-1.473859 0,-0.447617 0.0873,-0.865211 0.26202,-1.252781 0.18014,-0.393029 0.44216,-0.7342 0.78606,-1.023513 0.33844,-0.283854 0.75603,-0.507663 1.25278,-0.671425 0.50221,-0.169221 1.07537,-0.253831 1.7195,-0.253831 0.66597,0 1.24732,0.08734 1.74407,0.26202 0.50221,0.16922 0.92253,0.406675 1.26097,0.712365 0.15285,-0.13101 0.32207,-0.251103 0.50766,-0.360277 0.19106,-0.109175 0.38757,-0.204703 0.58954,-0.286584 0.20197,-0.07642 0.40668,-0.139198 0.61411,-0.188326 0.20743,-0.04913 0.40395,-0.07915 0.58955,-0.09007 v 2.063403 c -0.15831,0 -0.3712,0.01365 -0.63868,0.04094 -0.26201,0.02183 -0.55405,0.07642 -0.87612,0.163762 0.0546,0.114633 0.0955,0.248372 0.12282,0.401217 0.0327,0.147386 0.0491,0.308419 0.0491,0.483099 0,0.453074 -0.0873,0.873397 -0.26202,1.260968 -0.16922,0.38757 -0.42032,0.723283 -0.75331,1.007137 -0.33844,0.289313 -0.7533,0.515851 -1.24459,0.679613 -0.49129,0.158303 -1.059,0.237455 -1.70313,0.237455 -0.2511,0 -0.49128,-0.01365 -0.72055,-0.04094 -0.22927,-0.02729 -0.44489,-0.06278 -0.64686,-0.106445 -0.0928,0.07642 -0.16649,0.150115 -0.22108,0.221079 -0.0546,0.07096 -0.0819,0.147385 -0.0819,0.229267 0,0.16922 0.0846,0.281124 0.25383,0.335712 0.17468,0.04913 0.42578,0.08188 0.75331,0.09826 l 1.33466,0.09007 c 0.76968,0.02729 1.42473,0.09553 1.96514,0.204702 0.54587,0.109174 0.99349,0.264748 1.34285,0.466722 0.34936,0.207432 0.60319,0.463992 0.7615,0.769682 0.16376,0.305689 0.24564,0.668695 0.24564,1.089018 0,0.458534 -0.12828,0.859751 -0.38484,1.203652 -0.25656,0.3439 -0.61138,0.630484 -1.06445,0.859751 -0.45854,0.223808 -1.00169,0.3903 -1.62944,0.499475 -0.62775,0.114633 -1.31282,0.17195 -2.05521,0.17195 z m 0.18832,-7.582186 c 0.24565,0 0.46127,-0.04094 0.64686,-0.122822 0.19106,-0.08188 0.35209,-0.193786 0.4831,-0.335712 0.13101,-0.141928 0.22927,-0.308419 0.29477,-0.499475 0.0655,-0.196515 0.0983,-0.409406 0.0983,-0.638672 0,-0.223808 -0.0328,-0.43124 -0.0983,-0.622296 -0.0655,-0.196515 -0.16106,-0.365736 -0.28658,-0.507663 -0.13101,-0.141927 -0.29204,-0.253831 -0.4831,-0.335712 -0.18559,-0.08188 -0.40394,-0.122822 -0.65505,-0.122822 -0.24564,0 -0.46399,0.04094 -0.65504,0.122822 -0.19106,0.08188 -0.35209,0.193785 -0.4831,0.335712 -0.13101,0.141927 -0.22927,0.311148 -0.29477,0.507663 -0.0655,0.191056 -0.0983,0.398488 -0.0983,0.622296 0,0.229266 0.0328,0.442157 0.0983,0.638672 0.071,0.191056 0.17195,0.357547 0.30296,0.499475 0.13101,0.141926 0.28931,0.25383 0.47491,0.335712 0.19105,0.08188 0.4094,0.122822 0.65504,0.122822 z m 0.24565,6.22296 c 0.3439,0 0.65778,-0.02184 0.94163,-0.06551 0.28931,-0.03821 0.53769,-0.09553 0.74512,-0.17195 0.20197,-0.08188 0.36028,-0.180138 0.47491,-0.294772 0.11463,-0.114634 0.17195,-0.245643 0.17195,-0.393029 0,-0.136468 -0.0246,-0.25656 -0.0737,-0.360276 -0.0491,-0.103716 -0.15558,-0.191056 -0.31933,-0.26202 -0.16922,-0.07096 -0.41213,-0.13101 -0.72874,-0.180138 -0.31115,-0.04367 -0.73147,-0.07916 -1.26097,-0.106446 l -1.40836,-0.0655 -0.58954,-0.04913 c -0.16922,0.109174 -0.29477,0.231996 -0.37665,0.368465 -0.0819,0.141927 -0.12282,0.286583 -0.12282,0.433969 0,0.196514 0.0464,0.365735 0.13919,0.507663 0.0928,0.141927 0.24292,0.262019 0.45035,0.360277 0.20197,0.0928 0.46399,0.161032 0.78606,0.204702 0.32207,0.04913 0.71237,0.07369 1.1709,0.07369 z" style="font-style:normal;font-variant:normal;font-weight:bold;font-stretch:normal;font-size:16.76924133px;line-height:1.25;font-family:'Benton Sans';-inkscape-font-specification:'Benton Sans Bold';letter-spacing:0px;word-spacing:0px;fill:#ffffff;stroke-width:0.41923103" id="path872" inkscape:connector-curvature="0" />
         <path sodipodi:nodetypes="ccccccccscccccssccccc" d="m 144.57647,52.49611 v -8.941412 h 2.70207 v 1.498424 h 0.0164 c 0.12009,-0.185598 0.26475,-0.376654 0.43397,-0.573168 0.17468,-0.201973 0.38484,-0.384841 0.63048,-0.548603 0.24019,-0.163762 0.51858,-0.297501 0.83519,-0.401217 0.32207,-0.103716 0.69326,-0.155574 1.11358,-0.155574 h 0.0901 l -0.0409,2.399115 c -0.0273,-0.0055 -0.0709,-0.01093 -0.13101,-0.01638 -0.0601,-0.0055 -0.12557,-0.01093 -0.19651,-0.01638 -0.071,-0.0055 -0.14193,-0.0082 -0.21289,-0.0082 -0.0655,-0.0055 -0.12012,-0.0082 -0.16377,-0.0082 -0.26747,0 -0.51857,0.03275 -0.7533,0.09826 -0.23473,0.06551 -0.45035,0.152846 -0.64686,0.262019 -0.20197,0.114633 -0.38484,0.245643 -0.5486,0.393029 -0.15831,0.147386 -0.30024,0.30296 -0.42579,0.466722 v 5.551536 z" style="font-style:normal;font-variant:normal;font-weight:bold;font-stretch:normal;font-size:16.76924133px;line-height:1.25;font-family:'Benton Sans';-inkscape-font-specification:'Benton Sans Bold';letter-spacing:0px;word-spacing:0px;fill:#ffffff;stroke-width:0.41923103" id="path874" inkscape:connector-curvature="0" />
         <path sodipodi:nodetypes="scccscscccscccccscccccsccccccsccsccccc" d="m 155.3602,52.684437 c -0.58409,0 -1.1518,-0.07915 -1.70313,-0.237455 -0.54587,-0.163762 -1.02897,-0.428511 -1.44929,-0.794247 -0.42578,-0.365736 -0.76695,-0.843375 -1.02351,-1.432918 -0.25656,-0.595003 -0.38484,-1.323744 -0.38484,-2.186224 0,-0.578627 0.0682,-1.094478 0.2047,-1.547553 0.13647,-0.458534 0.31933,-0.859751 0.5486,-1.203651 0.22927,-0.343901 0.49402,-0.635943 0.79425,-0.876127 0.30569,-0.245644 0.62502,-0.444888 0.95801,-0.597732 0.33298,-0.152845 0.66869,-0.26202 1.00713,-0.327524 0.3439,-0.07096 0.6687,-0.106446 0.97439,-0.106446 0.30569,0 0.61956,0.03002 0.94163,0.09007 0.32753,0.05459 0.64413,0.152844 0.94982,0.294772 0.30023,0.147386 0.58409,0.3439 0.85156,0.589544 0.27294,0.240184 0.5104,0.543144 0.71237,0.90888 0.20197,0.371194 0.36028,0.810622 0.47491,1.318285 0.12009,0.507662 0.18014,2.453702 0.18014,1.776819 v 0.401217 h -5.92 c 0.0327,0.371194 0.10642,0.6878 0.22107,0.94982 0.12009,0.25656 0.27021,0.466722 0.45035,0.630484 0.18014,0.163762 0.3903,0.283855 0.63048,0.360277 0.24019,0.07096 0.49948,0.106445 0.77787,0.106445 0.26202,0 0.51858,-0.03002 0.76969,-0.09007 0.25656,-0.06005 0.49947,-0.139199 0.72874,-0.237455 0.22381,-0.09826 0.43397,-0.210162 0.63048,-0.335712 0.19651,-0.13101 0.37119,-0.267479 0.52404,-0.409406 l 1.03989,1.613057 c -0.52404,0.442158 -1.10812,0.77787 -1.75225,1.007137 -0.64413,0.223808 -1.3565,0.335713 -2.1371,0.335713 z m 1.62125,-5.518784 c -0.0655,-0.633214 -0.24021,-1.102665 -0.52404,-1.408354 -0.28385,-0.30569 -0.67961,-0.458534 -1.18728,-0.458534 -0.20743,0 -0.40668,0.03548 -0.59773,0.106445 -0.19105,0.07096 -0.363,0.182868 -0.51585,0.335713 -0.15831,0.152844 -0.29478,0.346629 -0.40941,0.581355 -0.10917,0.234726 -0.18832,0.515851 -0.23745,0.843375 z" style="font-style:normal;font-variant:normal;font-weight:bold;font-stretch:normal;font-size:16.76924133px;line-height:1.25;font-family:'Benton Sans';-inkscape-font-specification:'Benton Sans Bold';letter-spacing:0px;word-spacing:0px;fill:#ffffff;stroke-width:0.41923103" id="path876" inkscape:connector-curvature="0" />
         <path sodipodi:nodetypes="cccscccccscccscccccccccscccsccccccscscccccccccsccccc" d="m 164.31799,52.684437 c -0.49129,0 -0.94436,-0.03548 -1.35923,-0.106446 -0.4094,-0.07096 -0.78332,-0.169221 -1.12177,-0.294771 -0.3439,-0.120093 -0.65505,-0.26475 -0.93344,-0.43397 -0.27839,-0.169221 -0.53223,-0.349359 -0.7615,-0.540415 l 1.07265,-1.5148 c 0.20197,0.17468 0.42578,0.335713 0.67142,0.483099 0.24565,0.141926 0.50494,0.262018 0.77787,0.360276 0.26748,0.103716 0.54042,0.182867 0.81881,0.237455 0.28385,0.05459 0.56225,0.08188 0.83519,0.08188 0.20743,0 0.39849,-0.01638 0.57317,-0.04913 0.17468,-0.03821 0.32479,-0.09553 0.45034,-0.17195 0.12555,-0.07096 0.22381,-0.161034 0.29477,-0.270208 0.071,-0.109175 0.10645,-0.237455 0.10645,-0.384841 0,-0.152845 -0.0328,-0.283855 -0.0983,-0.393029 -0.0601,-0.114634 -0.15559,-0.212891 -0.28658,-0.294772 -0.13647,-0.08188 -0.31388,-0.152845 -0.53223,-0.212891 -0.21289,-0.06005 -0.47218,-0.117364 -0.77787,-0.17195 -0.28385,-0.04913 -0.56771,-0.103714 -0.85156,-0.163762 -0.27839,-0.06551 -0.5486,-0.144659 -0.81062,-0.237455 -0.26202,-0.08734 -0.50494,-0.196515 -0.72875,-0.327524 -0.22381,-0.13101 -0.41759,-0.292043 -0.58135,-0.483099 -0.16376,-0.191056 -0.29477,-0.414864 -0.39303,-0.671424 -0.0928,-0.26202 -0.1392,-0.567709 -0.1392,-0.917068 0,-0.447617 0.0873,-0.846105 0.26202,-1.195464 0.17468,-0.354818 0.41759,-0.652319 0.72874,-0.892503 0.30569,-0.240185 0.6687,-0.423053 1.08902,-0.548603 0.42578,-0.13101 0.88977,-0.196515 1.39198,-0.196515 0.45853,0 0.8734,0.03002 1.24459,0.09007 0.37119,0.05459 0.71509,0.133738 1.0317,0.237455 0.31661,0.109175 0.60865,0.242914 0.87613,0.401218 0.26748,0.152844 0.52404,0.327524 0.76968,0.524038 l -1.05626,1.531176 c -0.45308,-0.311148 -0.9007,-0.551333 -1.34285,-0.720553 -0.4367,-0.169221 -0.86521,-0.253831 -1.28554,-0.253831 -0.38757,0 -0.6878,0.07096 -0.90069,0.21289 -0.20743,0.136468 -0.31115,0.327524 -0.31115,0.573168 0,0.136468 0.03,0.25383 0.0901,0.352088 0.0655,0.0928 0.16379,0.17468 0.29478,0.245644 0.13101,0.07642 0.29477,0.144656 0.49128,0.204702 0.20197,0.05459 0.44216,0.106444 0.72056,0.155574 0.29477,0.04913 0.58681,0.103714 0.87612,0.163762 0.29477,0.06005 0.5759,0.133739 0.84338,0.221079 0.26747,0.0928 0.51585,0.204703 0.74512,0.335713 0.23472,0.12555 0.43669,0.281124 0.60591,0.466722 0.16923,0.185596 0.30297,0.406675 0.40122,0.663236 0.0983,0.251102 0.14739,0.545874 0.14739,0.884316 0,0.540414 -0.10918,1.001678 -0.32753,1.38379 -0.21289,0.382111 -0.5022,0.693259 -0.86794,0.933444 -0.36573,0.245642 -0.78605,0.423051 -1.26096,0.532227 -0.47491,0.114633 -0.96893,0.17195 -1.48205,0.17195 z" style="font-style:normal;font-variant:normal;font-weight:bold;font-stretch:normal;font-size:16.76924133px;line-height:1.25;font-family:'Benton Sans';-inkscape-font-specification:'Benton Sans Bold';letter-spacing:0px;word-spacing:0px;fill:#ffffff;stroke-width:0.41923103" id="path878" inkscape:connector-curvature="0" />
         <path sodipodi:nodetypes="cccccccccscccscccccccccscccsccccccscscccccccccsccccc" d="m 173.11202,52.684437 c -0.49129,0 -0.94436,-0.03548 -1.35923,-0.106446 -0.40941,-0.07096 -0.78333,-0.169221 -1.12177,-0.294771 -0.3439,-0.120093 -0.65505,-0.26475 -0.93344,-0.43397 -0.2784,-0.169221 -0.53223,-0.349359 -0.7615,-0.540415 l 1.07265,-1.5148 c 0.20197,0.17468 0.42578,0.335713 0.67142,0.483099 0.24565,0.141926 0.50494,0.262018 0.77787,0.360276 0.26748,0.103716 0.54042,0.182867 0.81881,0.237455 0.28385,0.05459 0.56225,0.08188 0.83519,0.08188 0.20743,0 0.39849,-0.01638 0.57317,-0.04913 0.17468,-0.03821 0.32479,-0.09553 0.45034,-0.17195 0.12555,-0.07096 0.22381,-0.161034 0.29477,-0.270208 0.071,-0.109175 0.10645,-0.237455 0.10645,-0.384841 0,-0.152845 -0.0328,-0.283855 -0.0983,-0.393029 -0.0601,-0.114634 -0.15559,-0.212891 -0.28658,-0.294772 -0.13647,-0.08188 -0.31388,-0.152845 -0.53223,-0.212891 -0.21289,-0.06005 -0.47218,-0.117364 -0.77787,-0.17195 -0.28385,-0.04913 -0.56771,-0.103714 -0.85156,-0.163762 -0.2784,-0.06551 -0.54861,-0.144659 -0.81062,-0.237455 -0.26202,-0.08734 -0.50494,-0.196515 -0.72875,-0.327524 -0.22381,-0.13101 -0.41759,-0.292043 -0.58135,-0.483099 -0.16376,-0.191056 -0.29477,-0.414864 -0.39303,-0.671424 -0.0928,-0.26202 -0.1392,-0.567709 -0.1392,-0.917068 0,-0.447617 0.0873,-0.846105 0.26202,-1.195464 0.17468,-0.354818 0.41759,-0.652319 0.72874,-0.892503 0.30569,-0.240185 0.6687,-0.423053 1.08902,-0.548603 0.42578,-0.13101 0.88977,-0.196515 1.39198,-0.196515 0.45853,0 0.8734,0.03002 1.24459,0.09007 0.37119,0.05459 0.71509,0.133738 1.0317,0.237455 0.31661,0.109175 0.60865,0.242914 0.87613,0.401218 0.26748,0.152844 0.52404,0.327524 0.76968,0.524038 l -1.05626,1.531176 c -0.45308,-0.311148 -0.9007,-0.551333 -1.34285,-0.720553 -0.4367,-0.169221 -0.86521,-0.253831 -1.28554,-0.253831 -0.38757,0 -0.6878,0.07096 -0.90069,0.21289 -0.20743,0.136468 -0.31115,0.327524 -0.31115,0.573168 0,0.136468 0.03,0.25383 0.0901,0.352088 0.0655,0.0928 0.16379,0.17468 0.29477,0.245644 0.13101,0.07642 0.29478,0.144656 0.49129,0.204702 0.20197,0.05459 0.44216,0.106444 0.72055,0.155574 0.29477,0.04913 0.58682,0.103714 0.87613,0.163762 0.29477,0.06005 0.5759,0.133739 0.84338,0.221079 0.26747,0.0928 0.51584,0.204703 0.74511,0.335713 0.23473,0.12555 0.4367,0.281124 0.60592,0.466722 0.16923,0.185596 0.30297,0.406675 0.40122,0.663236 0.0983,0.251102 0.14739,0.545874 0.14739,0.884316 0,0.540414 -0.10918,1.001678 -0.32753,1.38379 -0.21289,0.382111 -0.5022,0.693259 -0.86794,0.933444 -0.36573,0.245642 -0.78605,0.423051 -1.26096,0.532227 -0.47491,0.114633 -0.96893,0.17195 -1.48205,0.17195 z" style="font-style:normal;font-variant:normal;font-weight:bold;font-stretch:normal;font-size:16.76924133px;line-height:1.25;font-family:'Benton Sans';-inkscape-font-specification:'Benton Sans Bold';letter-spacing:0px;word-spacing:0px;fill:#ffffff;stroke-width:0.41923103" id="path880" inkscape:connector-curvature="0" />
         <path sodipodi:nodetypes="cccccccccc" d="m 178.64718,52.49611 v -8.941412 h 2.6857 v 8.941412 z m -0.0164,-10.161439 v -2.16166 h 2.71845 v 2.16166 z" style="font-style:normal;font-variant:normal;font-weight:bold;font-stretch:normal;font-size:16.76924133px;line-height:1.25;font-family:'Benton Sans';-inkscape-font-specification:'Benton Sans Bold';letter-spacing:0px;word-spacing:0px;fill:#ffffff;stroke-width:0.41923103" id="path882" inkscape:connector-curvature="0" />
         <path sodipodi:nodetypes="ccccccccc" d="m 185.62345,52.512487 -3.20155,-8.957789 h 2.78395 l 1.87508,5.952754 h 0.0327 l 1.88327,-5.952754 h 2.53012 l -3.18517,8.957789 z" style="font-style:normal;font-variant:normal;font-weight:bold;font-stretch:normal;font-size:16.76924133px;line-height:1.25;font-family:'Benton Sans';-inkscape-font-specification:'Benton Sans Bold';letter-spacing:0px;word-spacing:0px;fill:#ffffff;stroke-width:0.41923103" id="path884" inkscape:connector-curvature="0" />
         <path sodipodi:nodetypes="scccscscccscccccscccccsccccccsccsccccc" d="m 196.19429,52.684437 c -0.58409,0 -1.15179,-0.07915 -1.70312,-0.237455 -0.54588,-0.163762 -1.02898,-0.428511 -1.4493,-0.794247 -0.42578,-0.365736 -0.76695,-0.843375 -1.02351,-1.432918 -0.25656,-0.595003 -0.38484,-1.323744 -0.38484,-2.186224 0,-0.578627 0.0682,-1.094478 0.2047,-1.547553 0.13647,-0.458534 0.31933,-0.859751 0.5486,-1.203651 0.22927,-0.343901 0.49402,-0.635943 0.79425,-0.876127 0.30569,-0.245644 0.62502,-0.444888 0.95801,-0.597732 0.33298,-0.152845 0.66869,-0.26202 1.00713,-0.327524 0.3439,-0.07096 0.6687,-0.106446 0.97439,-0.106446 0.30569,0 0.61956,0.03002 0.94163,0.09007 0.32753,0.05459 0.64413,0.152844 0.94982,0.294772 0.30023,0.147386 0.58409,0.3439 0.85156,0.589544 0.27294,0.240184 0.5104,0.543144 0.71237,0.90888 0.20197,0.371194 0.36028,0.810622 0.47491,1.318285 0.12009,0.507662 0.18014,2.453702 0.18014,1.776819 v 0.401217 h -5.92 c 0.0327,0.371194 0.10643,0.6878 0.22108,0.94982 0.12009,0.25656 0.2702,0.466722 0.45034,0.630484 0.18014,0.163762 0.3903,0.283855 0.63049,0.360277 0.24018,0.07096 0.49947,0.106445 0.77787,0.106445 0.26202,0 0.51858,-0.03002 0.76968,-0.09007 0.25656,-0.06005 0.49947,-0.139199 0.72874,-0.237455 0.22381,-0.09826 0.43397,-0.210162 0.63048,-0.335712 0.19652,-0.13101 0.3712,-0.267479 0.52404,-0.409406 l 1.03989,1.613057 c -0.52404,0.442158 -1.10812,0.77787 -1.75225,1.007137 -0.64413,0.223808 -1.3565,0.335713 -2.1371,0.335713 z m 1.62125,-5.518784 c -0.0655,-0.633214 -0.24021,-1.102665 -0.52404,-1.408354 -0.28385,-0.30569 -0.67961,-0.458534 -1.18728,-0.458534 -0.20743,0 -0.40668,0.03548 -0.59773,0.106445 -0.19105,0.07096 -0.363,0.182868 -0.51585,0.335713 -0.15831,0.152844 -0.29478,0.346629 -0.40941,0.581355 -0.10917,0.234726 -0.18832,0.515851 -0.23745,0.843375 z" style="font-style:normal;font-variant:normal;font-weight:bold;font-stretch:normal;font-size:16.76924133px;line-height:1.25;font-family:'Benton Sans';-inkscape-font-specification:'Benton Sans Bold';letter-spacing:0px;word-spacing:0px;fill:#ffffff;stroke-width:0.41923103" id="path886" inkscape:connector-curvature="0" />
         <path sodipodi:nodetypes="cccccccscscscccsccccscccscccsccccs" d="M 73.511895,69.935619 V 57.727152 h 1.441107 v 1.220028 c 0.169221,-0.185597 0.352088,-0.363006 0.548603,-0.532227 0.201973,-0.169221 0.423052,-0.319336 0.663236,-0.450346 0.240185,-0.131009 0.499475,-0.234725 0.77787,-0.311148 0.283855,-0.07642 0.592273,-0.114633 0.925256,-0.114633 0.507663,0 0.979844,0.09553 1.416543,0.286584 0.442157,0.185597 0.824269,0.469451 1.146335,0.851563 0.322065,0.382111 0.575897,0.86248 0.761494,1.441106 0.185597,0.573167 0.278395,1.244592 0.278395,2.014274 0,0.769682 -0.09553,1.441107 -0.286584,2.014275 -0.185597,0.573167 -0.444887,1.048077 -0.77787,1.42473 -0.332983,0.382111 -0.728741,0.668695 -1.187275,0.859751 -0.458534,0.185597 -0.958008,0.278396 -1.498423,0.278396 -0.545874,0 -1.050807,-0.111904 -1.5148,-0.335713 -0.458534,-0.229267 -0.876127,-0.540415 -1.25278,-0.933444 v 4.495271 z m 4.003984,-4.397013 c 0.38757,0 0.736929,-0.06551 1.048078,-0.196515 0.311148,-0.136469 0.575897,-0.343901 0.794246,-0.622296 0.212891,-0.272937 0.376653,-0.622296 0.491286,-1.048078 0.120093,-0.425781 0.180139,-0.933444 0.180139,-1.522987 0,-0.56225 -0.06278,-1.053536 -0.188327,-1.473859 -0.125551,-0.425782 -0.30023,-0.777871 -0.524039,-1.056266 -0.223808,-0.278396 -0.488557,-0.485828 -0.794246,-0.622296 -0.305689,-0.141927 -0.635943,-0.212891 -0.990761,-0.212891 -0.513121,0 -0.979843,0.125551 -1.400166,0.376653 -0.414864,0.245643 -0.807893,0.573168 -1.179087,0.982573 v 4.053112 c 0.38757,0.442158 0.791516,0.77787 1.211839,1.007137 0.425782,0.223809 0.876128,0.335713 1.351038,0.335713 z" style="font-style:normal;font-variant:normal;font-weight:normal;font-stretch:normal;font-size:16.76924133px;line-height:1.25;font-family:'Benton Sans';-inkscape-font-specification:'Benton Sans';letter-spacing:0px;word-spacing:0px;fill:#ffffff;stroke-width:0.41923103" id="path888" inkscape:connector-curvature="0" />
         <path sodipodi:nodetypes="scccscsccscsccccccscsccsssccccccsscccscsscs" d="m 85.351897,66.709505 c -0.382112,0 -0.728742,-0.04913 -1.03989,-0.147386 -0.305689,-0.09826 -0.564979,-0.242914 -0.77787,-0.43397 -0.218349,-0.185597 -0.38757,-0.417593 -0.507663,-0.695989 -0.114633,-0.278395 -0.17195,-0.595002 -0.17195,-0.94982 0,-0.447617 0.100987,-0.862481 0.30296,-1.244592 0.207432,-0.382112 0.543144,-0.728742 1.007137,-1.03989 0.463993,-0.311148 1.072642,-0.584085 1.825948,-0.81881 0.758765,-0.234726 1.68675,-0.431241 2.783956,-0.589544 v -0.401217 c 0,-0.556791 -0.144657,-0.968926 -0.43397,-1.236404 -0.283854,-0.267478 -0.698718,-0.401217 -1.244592,-0.401217 -0.338441,0 -0.655048,0.03548 -0.94982,0.106445 -0.289313,0.06551 -0.56498,0.158305 -0.826999,0.278396 -0.262019,0.120092 -0.510392,0.262019 -0.745117,0.425781 -0.234726,0.163762 -0.461264,0.338442 -0.679613,0.524039 l -0.753306,-0.900692 c 0.256561,-0.234725 0.532227,-0.453075 0.826999,-0.655048 0.294771,-0.201973 0.611378,-0.376653 0.94982,-0.524039 0.338442,-0.147386 0.701448,-0.26202 1.089018,-0.343901 0.387571,-0.08188 0.802435,-0.122821 1.244592,-0.122821 0.529498,0 0.979844,0.06823 1.351038,0.204703 0.371194,0.131009 0.676883,0.322065 0.917068,0.573167 0.234725,0.256561 0.406675,0.567709 0.51585,0.933444 0.109175,0.365735 0.163762,0.780599 0.163762,1.244592 v 3.905727 c 0,0.540415 0.01911,0.982572 0.05732,1.326473 0.03821,0.338442 0.103718,0.622296 0.196515,0.851563 h -1.473859 c -0.06005,-0.185597 -0.109175,-0.371194 -0.147386,-0.556791 -0.03821,-0.191056 -0.05732,-0.414864 -0.05732,-0.671425 -0.496745,0.463993 -1.026243,0.807893 -1.588493,1.031701 -0.556791,0.21835 -1.168169,0.327525 -1.834135,0.327525 z m 0.417593,-1.138147 c 0.595003,0 1.140876,-0.111904 1.637621,-0.335712 0.502204,-0.229267 0.958009,-0.548604 1.367414,-0.958009 v -2.480996 c -0.846104,0.136469 -1.55574,0.289313 -2.128908,0.458534 -0.573167,0.169221 -1.034431,0.354818 -1.38379,0.556791 -0.349359,0.207432 -0.60046,0.43124 -0.753305,0.671425 -0.152845,0.240185 -0.229267,0.499475 -0.229267,0.77787 0,0.43124 0.13101,0.758764 0.393029,0.982573 0.267478,0.218349 0.633213,0.327524 1.097206,0.327524 z" style="font-style:normal;font-variant:normal;font-weight:normal;font-stretch:normal;font-size:16.76924133px;line-height:1.25;font-family:'Benton Sans';-inkscape-font-specification:'Benton Sans';letter-spacing:0px;word-spacing:0px;fill:#ffffff;stroke-width:0.41923103" id="path890" inkscape:connector-curvature="0" />
         <path sodipodi:nodetypes="ccscscccsccccccsccsscscsccccccccc" d="m 96.102879,66.766821 c -0.507663,0 -0.998949,-0.09826 -1.473859,-0.294771 -0.47491,-0.196515 -0.895233,-0.488557 -1.260968,-0.876128 -0.365735,-0.38757 -0.657778,-0.867939 -0.876128,-1.441106 C 92.273575,63.576189 92.1644,62.907494 92.1644,62.14873 c 0,-0.807893 0.117363,-1.501153 0.352089,-2.079779 0.240184,-0.584085 0.554061,-1.064454 0.941632,-1.441107 0.382111,-0.371194 0.813352,-0.644131 1.293721,-0.818811 0.485827,-0.180138 0.977114,-0.270207 1.473859,-0.270207 0.496745,0 0.930714,0.06823 1.301909,0.204703 0.376653,0.136468 0.704177,0.316606 0.982572,0.540415 0.272937,0.229267 0.504934,0.494015 0.695989,0.794246 0.191056,0.300231 0.354818,0.614108 0.491287,0.941632 l -1.228216,0.507663 c -0.218349,-0.578627 -0.507662,-1.015326 -0.867939,-1.310097 -0.360277,-0.300231 -0.829728,-0.450346 -1.408355,-0.450346 -0.322065,0 -0.635943,0.06005 -0.941632,0.180138 -0.305689,0.114633 -0.578626,0.305689 -0.81881,0.573168 -0.245643,0.267478 -0.442158,0.616837 -0.589544,1.048077 -0.147386,0.431241 -0.221079,0.958009 -0.221079,1.580305 0,0.545873 0.06005,1.031701 0.180138,1.457483 0.125551,0.420323 0.300231,0.77514 0.524039,1.064453 0.223809,0.289313 0.491287,0.510392 0.802435,0.663237 0.311148,0.147386 0.655048,0.221079 1.031701,0.221079 0.278395,0 0.532227,-0.03002 0.761494,-0.09007 0.229267,-0.06551 0.442157,-0.169223 0.638672,-0.311148 0.191056,-0.141927 0.365736,-0.324795 0.524039,-0.548604 0.158303,-0.229267 0.308419,-0.504933 0.450346,-0.826998 l 1.195463,0.466722 c -0.174679,0.371194 -0.371194,0.712365 -0.589543,1.023513 -0.21835,0.305689 -0.472181,0.570438 -0.761494,0.794246 -0.294772,0.223809 -0.627755,0.395759 -0.998949,0.515851 -0.371194,0.125551 -0.796976,0.188326 -1.277345,0.188327 z" style="font-style:normal;font-variant:normal;font-weight:normal;font-stretch:normal;font-size:16.76924133px;line-height:1.25;font-family:'Benton Sans';-inkscape-font-specification:'Benton Sans';letter-spacing:0px;word-spacing:0px;fill:#ffffff;stroke-width:0.41923103" id="path892" inkscape:connector-curvature="0" />
         <path sodipodi:nodetypes="ccccccccccccc" d="M 101.6626,66.578495 V 54.165326 h 1.44111 v 7.983404 l 3.95486,-4.421578 h 1.64581 l -2.89859,3.168797 3.21792,5.682546 h -1.54755 l -2.61201,-4.609904 -1.76044,1.891453 v 2.718451 z" style="font-style:normal;font-variant:normal;font-weight:normal;font-stretch:normal;font-size:16.76924133px;line-height:1.25;font-family:'Benton Sans';-inkscape-font-specification:'Benton Sans';letter-spacing:0px;word-spacing:0px;fill:#ffffff;stroke-width:0.41923103" id="path894" inkscape:connector-curvature="0" />
         <path sodipodi:nodetypes="scccscsccscsccccccccsccsssccccccsscccccsscs" d="m 112.51184,66.709505 c -0.38211,0 -0.72874,-0.04913 -1.03989,-0.147386 -0.30569,-0.09826 -0.56498,-0.242914 -0.77787,-0.43397 -0.21835,-0.185597 -0.38757,-0.417593 -0.50766,-0.695989 -0.11463,-0.278395 -0.17195,-0.595002 -0.17195,-0.94982 0,-0.447617 0.10099,-0.862481 0.30296,-1.244592 0.20743,-0.382112 0.54315,-0.728742 1.00714,-1.03989 0.46399,-0.311148 1.07264,-0.584085 1.82595,-0.81881 0.75876,-0.234726 1.68674,-0.431241 2.78395,-0.589544 v -0.401217 c 0,-0.556791 -0.14466,-0.968926 -0.43397,-1.236404 -0.28385,-0.267478 -0.69872,-0.401217 -1.24459,-0.401217 -0.33844,0 -0.65505,0.03548 -0.94982,0.106445 -0.28931,0.06551 -0.56498,0.158305 -0.827,0.278396 -0.26202,0.120092 -0.51039,0.262019 -0.74512,0.425781 -0.23472,0.163762 -0.46126,0.338442 -0.67961,0.524039 l -0.7533,-0.900692 c 0.25656,-0.234725 0.53222,-0.453075 0.82699,-0.655048 0.29477,-0.201973 0.61138,-0.376653 0.94982,-0.524039 0.33845,-0.147386 0.70145,-0.26202 1.08902,-0.343901 0.38757,-0.08188 0.80244,-0.122821 1.24459,-0.122821 0.5295,0 0.97985,0.06823 1.35104,0.204703 0.37119,0.131009 0.67688,0.322065 0.91707,0.573167 0.23473,0.256561 0.40668,0.567709 0.51585,0.933444 0.10917,0.365735 0.16376,0.780599 0.16376,1.244592 v 3.905727 c 0,0.540415 0.0191,0.982572 0.0573,1.326473 0.0382,0.338442 0.1037,0.622296 0.19651,0.851563 h -1.47385 c -0.0601,-0.185597 -0.1092,-0.371194 -0.14739,-0.556791 -0.0382,-0.191056 -0.0573,-0.414864 -0.0573,-0.671425 -0.49675,0.463993 -1.02624,0.807893 -1.58849,1.031701 -0.55679,0.21835 -1.16817,0.327525 -1.83414,0.327525 z m 0.4176,-1.138147 c 0.595,0 1.14087,-0.111904 1.63762,-0.335712 0.5022,-0.229267 0.958,-0.548604 1.36741,-0.958009 v -2.480996 c -0.8461,0.136469 -1.55574,0.289313 -2.12891,0.458534 -0.57317,0.169221 -1.03443,0.354818 -1.38379,0.556791 -0.34935,0.207432 -0.60045,0.43124 -0.7533,0.671425 -0.15285,0.240185 -0.22927,0.499475 -0.22927,0.77787 0,0.43124 0.13101,0.758764 0.39303,0.982573 0.26748,0.218349 0.63322,0.327524 1.09721,0.327524 z" style="font-style:normal;font-variant:normal;font-weight:normal;font-stretch:normal;font-size:16.76924133px;line-height:1.25;font-family:'Benton Sans';-inkscape-font-specification:'Benton Sans';letter-spacing:0px;word-spacing:0px;fill:#ffffff;stroke-width:0.41923103" id="path896" inkscape:connector-curvature="0" />
         <path sodipodi:nodetypes="ccccscccscccscccsccccccccccsccsscccsccccccscccccscccscscccscccsccccscccccccsccscc" d="m 123.11544,69.984747 c -0.74785,0 -1.39198,-0.05186 -1.93239,-0.155574 -0.53495,-0.103716 -0.97438,-0.251102 -1.31828,-0.442158 -0.34936,-0.191055 -0.60865,-0.423052 -0.77787,-0.695989 -0.16377,-0.267478 -0.24565,-0.570438 -0.24565,-0.908879 0,-0.453075 0.14193,-0.846105 0.42578,-1.179088 0.28931,-0.327524 0.68234,-0.586814 1.17909,-0.77787 -0.2511,-0.120092 -0.43943,-0.272937 -0.56498,-0.458534 -0.12555,-0.191055 -0.18832,-0.412134 -0.18832,-0.663236 0,-0.289313 0.10371,-0.551333 0.31114,-0.786058 0.21289,-0.240185 0.47764,-0.453076 0.79425,-0.638673 -0.42578,-0.278395 -0.75876,-0.633213 -0.99895,-1.064454 -0.23473,-0.436699 -0.35209,-0.933444 -0.35209,-1.490235 0,-0.463993 0.0873,-0.889774 0.26202,-1.277344 0.18014,-0.393029 0.43124,-0.731471 0.75331,-1.015326 0.31661,-0.278395 0.69326,-0.496745 1.12996,-0.655048 0.44215,-0.158303 0.92798,-0.237455 1.45748,-0.237455 0.54587,0 1.03989,0.08461 1.48205,0.253831 0.44215,0.169221 0.8188,0.393029 1.12995,0.671425 0.13647,-0.09826 0.28659,-0.191056 0.45035,-0.278396 0.16922,-0.0928 0.34663,-0.177409 0.53223,-0.253831 0.18013,-0.07096 0.36573,-0.131009 0.55679,-0.180138 0.19105,-0.05459 0.37665,-0.0928 0.55679,-0.114634 v 1.277345 c -0.24565,0 -0.50767,0.02184 -0.78606,0.06551 -0.27293,0.04367 -0.54041,0.117359 -0.80243,0.221078 0.14193,0.201973 0.2511,0.43124 0.32752,0.687801 0.0819,0.256561 0.12282,0.534956 0.12282,0.835187 0,0.480369 -0.0901,0.914338 -0.2702,1.301909 -0.17468,0.387571 -0.42032,0.717824 -0.73693,0.990761 -0.32207,0.278395 -0.70145,0.491286 -1.13815,0.638672 -0.4367,0.147386 -0.91161,0.221079 -1.42473,0.221079 -0.26202,0 -0.50493,-0.01911 -0.72874,-0.05732 -0.22381,-0.03821 -0.45035,-0.09007 -0.67962,-0.155574 -0.18559,0.08188 -0.33571,0.180139 -0.45034,0.294772 -0.11463,0.109175 -0.17195,0.240184 -0.17195,0.393029 0,0.0928 0.0191,0.17468 0.0573,0.245643 0.0437,0.06551 0.1119,0.122824 0.2047,0.171951 0.0928,0.04913 0.21835,0.09007 0.37665,0.122821 0.15831,0.02729 0.35482,0.05186 0.58954,0.07369 l 1.80958,0.155574 c 1.12995,0.07642 1.97606,0.300231 2.53831,0.671425 0.56225,0.365735 0.84337,0.90615 0.84337,1.621245 0,0.420323 -0.10644,0.788787 -0.31933,1.105394 -0.20743,0.322065 -0.49948,0.592273 -0.87613,0.810623 -0.38211,0.218349 -0.84065,0.382111 -1.3756,0.491286 -0.5295,0.109175 -1.11359,0.163762 -1.75226,0.163762 z m -0.0491,-7.164593 c 0.33845,0 0.64414,-0.0464 0.91707,-0.139197 0.27294,-0.09826 0.50494,-0.237455 0.69599,-0.417594 0.19106,-0.174679 0.33845,-0.38757 0.44216,-0.638672 0.10371,-0.256561 0.15557,-0.545874 0.15557,-0.867939 0,-0.644131 -0.19378,-1.154523 -0.58135,-1.531176 -0.38211,-0.376653 -0.93072,-0.56498 -1.64581,-0.56498 -0.3439,0 -0.65505,0.04913 -0.93345,0.147386 -0.27293,0.09826 -0.50493,0.237455 -0.69598,0.417594 -0.19652,0.185597 -0.34664,0.409405 -0.45035,0.671424 -0.10371,0.256561 -0.15557,0.543145 -0.15557,0.859752 0,0.322065 0.0519,0.611378 0.15557,0.867939 0.10917,0.251102 0.26202,0.463993 0.45853,0.638672 0.19652,0.180139 0.43398,0.319337 0.71237,0.417594 0.27839,0.0928 0.58681,0.139197 0.92525,0.139197 z m 0.23746,6.075575 c 0.44216,0 0.83519,-0.03275 1.17909,-0.09826 0.34936,-0.06551 0.64686,-0.155576 0.8925,-0.270208 0.24019,-0.120092 0.42305,-0.262019 0.5486,-0.425781 0.13101,-0.163762 0.19652,-0.34663 0.19652,-0.548603 0,-0.196515 -0.0409,-0.368465 -0.12282,-0.515851 -0.0819,-0.141927 -0.21562,-0.26202 -0.40122,-0.360277 -0.19105,-0.103716 -0.44488,-0.188326 -0.76149,-0.253831 -0.31115,-0.06551 -0.69873,-0.114635 -1.16272,-0.147386 l -1.67856,-0.114633 -0.50766,-0.04913 c -0.42578,0.152845 -0.75057,0.357547 -0.97438,0.614108 -0.21835,0.256561 -0.32753,0.537686 -0.32753,0.843375 0,0.223808 0.0573,0.417593 0.17195,0.581355 0.12009,0.163763 0.30842,0.302961 0.56498,0.417594 0.2511,0.109175 0.57317,0.191056 0.9662,0.245643 0.39303,0.05459 0.86521,0.08188 1.41654,0.08188 z" style="font-style:normal;font-variant:normal;font-weight:normal;font-stretch:normal;font-size:16.76924133px;line-height:1.25;font-family:'Benton Sans';-inkscape-font-specification:'Benton Sans';letter-spacing:0px;word-spacing:0px;fill:#ffffff;stroke-width:0.41923103" id="path898" inkscape:connector-curvature="0" />
         <path sodipodi:nodetypes="scccscccscccscccccscccccssccccsccccc" d="m 132.65459,66.766821 c -0.52404,0 -1.02897,-0.09553 -1.5148,-0.286583 -0.48037,-0.191056 -0.90615,-0.480369 -1.27735,-0.867939 -0.37119,-0.382112 -0.66869,-0.862481 -0.8925,-1.441107 -0.21835,-0.578626 -0.32752,-1.25278 -0.32752,-2.022462 0,-0.802435 0.12009,-1.492965 0.36027,-2.071591 0.24565,-0.584085 0.56225,-1.064454 0.94982,-1.441107 0.38211,-0.376653 0.81063,-0.652319 1.28554,-0.826999 0.47491,-0.180138 0.94709,-0.270207 1.41654,-0.270207 0.52404,0 1.00987,0.09553 1.45748,0.286584 0.45307,0.185597 0.84337,0.469451 1.1709,0.851563 0.32753,0.38757 0.58409,0.876127 0.76968,1.465671 0.19106,0.584085 0.28659,1.277344 0.28659,2.079779 v 0.294771 h -6.25572 c 0.0109,0.502204 0.0874,0.944362 0.22927,1.326474 0.14739,0.382111 0.34117,0.701447 0.58136,0.958008 0.23472,0.256561 0.51038,0.453075 0.82699,0.589544 0.32207,0.131009 0.66597,0.196514 1.03171,0.196514 0.31661,0 0.60319,-0.03002 0.85975,-0.09007 0.25656,-0.06551 0.49128,-0.161035 0.70417,-0.286584 0.21289,-0.120092 0.40668,-0.270207 0.58136,-0.450346 0.18014,-0.180138 0.35482,-0.38484 0.52404,-0.614107 l 0.83518,0.736929 c -0.4094,0.589544 -0.90614,1.050807 -1.49023,1.38379 -0.58409,0.332983 -1.28826,0.499474 -2.11253,0.499475 z m 2.30904,-5.371397 c -0.0273,-0.393029 -0.0955,-0.750577 -0.2047,-1.072642 -0.10917,-0.327524 -0.25929,-0.608649 -0.45034,-0.843375 -0.19652,-0.229267 -0.43398,-0.406676 -0.71237,-0.532227 -0.27294,-0.131009 -0.59228,-0.196514 -0.95801,-0.196514 -0.30023,0 -0.59227,0.05186 -0.87613,0.155574 -0.27839,0.103716 -0.52949,0.264749 -0.7533,0.483098 -0.22927,0.218349 -0.42305,0.494016 -0.58136,0.826999 -0.1583,0.327524 -0.26201,0.720553 -0.31114,1.179087 z" style="font-style:normal;font-variant:normal;font-weight:normal;font-stretch:normal;font-size:16.76924133px;line-height:1.25;font-family:'Benton Sans';-inkscape-font-specification:'Benton Sans';letter-spacing:0px;word-spacing:0px;fill:#ffffff;stroke-width:0.41923103" id="path900" inkscape:connector-curvature="0" />
         <path sodipodi:nodetypes="ccccsccscccccccsccssccscccsscccccscccssccc" d="m 142.32474,66.578495 v -8.851343 h 1.44111 v 1.334662 c 0.20743,-0.207432 0.4285,-0.403947 0.66323,-0.589544 0.23473,-0.185597 0.4831,-0.349359 0.74512,-0.491286 0.26202,-0.136469 0.54042,-0.242914 0.83519,-0.319337 0.29477,-0.08188 0.60864,-0.122821 0.94163,-0.122821 0.37119,0 0.69326,0.03821 0.96619,0.114633 0.27294,0.07642 0.50494,0.182868 0.69599,0.319336 0.19106,0.136469 0.34664,0.30296 0.46673,0.499475 0.12555,0.191056 0.22653,0.401217 0.30296,0.630484 0.21289,-0.212891 0.43942,-0.412135 0.67961,-0.597732 0.24564,-0.191055 0.50493,-0.357547 0.77787,-0.499474 0.27293,-0.141927 0.55952,-0.253831 0.85975,-0.335712 0.30023,-0.08734 0.61684,-0.13101 0.94982,-0.13101 0.45307,0 0.84064,0.06278 1.16271,0.188326 0.32753,0.125551 0.59501,0.30296 0.80244,0.532227 0.20743,0.234726 0.36027,0.515851 0.45853,0.843375 0.0983,0.327525 0.14739,0.690531 0.14739,1.089018 v 6.386723 h -1.4493 v -6.067387 c 0,-0.294771 -0.0273,-0.548602 -0.0819,-0.761493 -0.0491,-0.21835 -0.13374,-0.401218 -0.25383,-0.548604 -0.12009,-0.141927 -0.2784,-0.245643 -0.47491,-0.311148 -0.19651,-0.07096 -0.43943,-0.106445 -0.72874,-0.106445 -0.24565,0 -0.4831,0.03275 -0.71237,0.09826 -0.22927,0.06551 -0.4558,0.158305 -0.67961,0.278396 -0.22381,0.125551 -0.44762,0.278395 -0.67143,0.458534 -0.21835,0.174679 -0.44215,0.371194 -0.67142,0.589543 v 6.370347 h -1.44111 v -6.067387 c 0,-0.294771 -0.0273,-0.548602 -0.0819,-0.761493 -0.0491,-0.21835 -0.13374,-0.401218 -0.25383,-0.548604 -0.12009,-0.141927 -0.2784,-0.245643 -0.47491,-0.311148 -0.19651,-0.07096 -0.43943,-0.106445 -0.72874,-0.106445 -0.48583,0 -0.94982,0.12828 -1.39198,0.384841 -0.44216,0.256561 -0.89523,0.60319 -1.35922,1.039889 v 6.370347 z" style="font-style:normal;font-variant:normal;font-weight:normal;font-stretch:normal;font-size:16.76924133px;line-height:1.25;font-family:'Benton Sans';-inkscape-font-specification:'Benton Sans';letter-spacing:0px;word-spacing:0px;fill:#ffffff;stroke-width:0.41923103" id="path902" inkscape:connector-curvature="0" />
         <path sodipodi:nodetypes="scccscsccscsccsccsscsccsssccccccsscccsccscs" d="m 159.65896,66.709505 c -0.38211,0 -0.72874,-0.04913 -1.03989,-0.147386 -0.30569,-0.09826 -0.56498,-0.242914 -0.77787,-0.43397 -0.21835,-0.185597 -0.38757,-0.417593 -0.50766,-0.695989 -0.11463,-0.278395 -0.17195,-0.595002 -0.17195,-0.94982 0,-0.447617 0.10099,-0.862481 0.30296,-1.244592 0.20743,-0.382112 0.54315,-0.728742 1.00714,-1.03989 0.46399,-0.311148 1.07264,-0.584085 1.82594,-0.81881 0.75877,-0.234726 1.68675,-0.431241 2.78396,-0.589544 v -0.401217 c 0,-0.556791 -0.14466,-0.968926 -0.43397,-1.236404 -0.28385,-0.267478 -0.69872,-0.401217 -1.24459,-0.401217 -0.33844,0 -0.65505,0.03548 -0.94982,0.106445 -0.28931,0.06551 -0.56498,0.158305 -0.827,0.278396 -0.26202,0.120092 -0.51039,0.262019 -0.74512,0.425781 -0.23473,0.163762 -0.46126,0.338442 -0.67961,0.524039 l -0.75331,-0.900692 c 0.25656,-0.234725 0.53223,-0.453075 0.827,-0.655048 0.29477,-0.201973 0.61138,-0.376653 0.94982,-0.524039 0.33844,-0.147386 0.70145,-0.26202 1.08902,-0.343901 0.38757,-0.08188 0.80244,-0.122821 1.24459,-0.122821 0.5295,0 0.97985,0.06823 1.35104,0.204703 0.37119,0.131009 0.67688,0.322065 0.91707,0.573167 0.23473,0.256561 0.40668,0.567709 0.51585,0.933444 0.10917,0.365735 0.16376,0.780599 0.16376,1.244592 v 3.905727 c 0,0.540415 0.0191,0.982572 0.0573,1.326473 0.0382,0.338442 0.1037,0.622296 0.19651,0.851563 h -1.47386 c -0.0601,-0.185597 -0.10919,-0.371194 -0.14738,-0.556791 -0.0382,-0.191056 -0.0573,-0.414864 -0.0573,-0.671425 -0.49675,0.463993 -1.02624,0.807893 -1.58849,1.031701 -0.55679,0.21835 -1.16817,0.327525 -1.83414,0.327525 z m 0.4176,-1.138147 c 0.595,0 1.14087,-0.111904 1.63762,-0.335712 0.5022,-0.229267 0.958,-0.548604 1.36741,-0.958009 v -2.480996 c -0.84611,0.136469 -1.55574,0.289313 -2.12891,0.458534 -0.57317,0.169221 -1.03443,0.354818 -1.38379,0.556791 -0.34936,0.207432 -0.60046,0.43124 -0.7533,0.671425 -0.15285,0.240185 -0.22927,0.499475 -0.22927,0.77787 0,0.43124 0.13101,0.758764 0.39303,0.982573 0.26748,0.218349 0.63322,0.327524 1.09721,0.327524 z" style="font-style:normal;font-variant:normal;font-weight:normal;font-stretch:normal;font-size:16.76924133px;line-height:1.25;font-family:'Benton Sans';-inkscape-font-specification:'Benton Sans';letter-spacing:0px;word-spacing:0px;fill:#ffffff;stroke-width:0.41923103" id="path904" inkscape:connector-curvature="0" />
         <path sodipodi:nodetypes="cccccccscsccscscccc" d="m 166.97913,66.578495 v -8.851343 h 1.45748 v 1.318285 c 0.19105,-0.185597 0.40394,-0.368464 0.63867,-0.548603 0.23473,-0.185597 0.49129,-0.349359 0.76968,-0.491286 0.27294,-0.136469 0.56771,-0.248373 0.88432,-0.335712 0.32207,-0.08734 0.66324,-0.13101 1.02351,-0.13101 0.85157,0 1.50116,0.231996 1.94877,0.695989 0.44762,0.458534 0.67143,1.110853 0.67143,1.956957 v 6.386723 h -1.44111 v -6.067387 c 0,-0.595002 -0.13101,-1.031701 -0.39303,-1.310097 -0.26202,-0.278395 -0.67415,-0.417593 -1.2364,-0.417593 -0.5295,0 -1.02625,0.12828 -1.49024,0.384841 -0.45853,0.256561 -0.91707,0.60319 -1.3756,1.039889 v 6.370347 z" style="font-style:normal;font-variant:normal;font-weight:normal;font-stretch:normal;font-size:16.76924133px;line-height:1.25;font-family:'Benton Sans';-inkscape-font-specification:'Benton Sans';letter-spacing:0px;word-spacing:0px;fill:#ffffff;stroke-width:0.41923103" id="path906" inkscape:connector-curvature="0" />
         <path sodipodi:nodetypes="scccscsccscsccccccccscccssccccccssscccscsscs" d="m 178.79457,66.709505 c -0.38211,0 -0.72874,-0.04913 -1.03989,-0.147386 -0.30569,-0.09826 -0.56498,-0.242914 -0.77787,-0.43397 -0.21835,-0.185597 -0.38758,-0.417593 -0.50767,-0.695989 -0.11463,-0.278395 -0.17195,-0.595002 -0.17195,-0.94982 0,-0.447617 0.10099,-0.862481 0.30296,-1.244592 0.20743,-0.382112 0.54315,-0.728742 1.00714,-1.03989 0.46399,-0.311148 1.07264,-0.584085 1.82595,-0.81881 0.75877,-0.234726 1.68675,-0.431241 2.78395,-0.589544 v -0.401217 c 0,-0.556791 -0.14465,-0.968926 -0.43396,-1.236404 -0.28386,-0.267478 -0.69873,-0.401217 -1.2446,-0.401217 -0.33844,0 -0.65505,0.03548 -0.94982,0.106445 -0.28931,0.06551 -0.56498,0.158305 -0.827,0.278396 -0.26202,0.120092 -0.51039,0.262019 -0.74511,0.425781 -0.23473,0.163762 -0.46127,0.338442 -0.67962,0.524039 l -0.7533,-0.900692 c 0.25656,-0.234725 0.53223,-0.453075 0.827,-0.655048 0.29477,-0.201973 0.61137,-0.376653 0.94982,-0.524039 0.33844,-0.147386 0.70144,-0.26202 1.08901,-0.343901 0.38757,-0.08188 0.80244,-0.122821 1.2446,-0.122821 0.52949,0 0.97984,0.06823 1.35103,0.204703 0.3712,0.131009 0.67689,0.322065 0.91707,0.573167 0.23473,0.256561 0.40668,0.567709 0.51585,0.933444 0.10918,0.365735 0.16377,0.780599 0.16377,1.244592 v 3.905727 c 0,0.540415 0.0191,0.982572 0.0573,1.326473 0.0382,0.338442 0.10371,0.622296 0.19652,0.851563 h -1.47386 c -0.0601,-0.185597 -0.1092,-0.371194 -0.14739,-0.556791 -0.0382,-0.191056 -0.0573,-0.414864 -0.0573,-0.671425 -0.49674,0.463993 -1.02624,0.807893 -1.58849,1.031701 -0.55679,0.21835 -1.16816,0.327525 -1.83413,0.327525 z m 0.41759,-1.138147 c 0.595,0 1.14087,-0.111904 1.63762,-0.335712 0.50221,-0.229267 0.95801,-0.548604 1.36741,-0.958009 v -2.480996 c -0.8461,0.136469 -1.55573,0.289313 -2.1289,0.458534 -0.57317,0.169221 -1.03443,0.354818 -1.38379,0.556791 -0.34936,0.207432 -0.60046,0.43124 -0.75331,0.671425 -0.15285,0.240185 -0.22927,0.499475 -0.22927,0.77787 0,0.43124 0.13101,0.758764 0.39303,0.982573 0.26748,0.218349 0.63322,0.327524 1.09721,0.327524 z" style="font-style:normal;font-variant:normal;font-weight:normal;font-stretch:normal;font-size:16.76924133px;line-height:1.25;font-family:'Benton Sans';-inkscape-font-specification:'Benton Sans';letter-spacing:0px;word-spacing:0px;fill:#ffffff;stroke-width:0.41923103" id="path908" inkscape:connector-curvature="0" />
         <path sodipodi:nodetypes="ccccscccscccscccsccccccccccsccsscccsccccccscccccscccscscccscccsccccscccccccsccscc" d="m 189.39816,69.984747 c -0.74785,0 -1.39198,-0.05186 -1.93239,-0.155574 -0.53496,-0.103716 -0.97439,-0.251102 -1.31829,-0.442158 -0.34935,-0.191055 -0.60864,-0.423052 -0.77787,-0.695989 -0.16376,-0.267478 -0.24564,-0.570438 -0.24564,-0.908879 0,-0.453075 0.14193,-0.846105 0.42578,-1.179088 0.28931,-0.327524 0.68234,-0.586814 1.17909,-0.77787 -0.2511,-0.120092 -0.43943,-0.272937 -0.56498,-0.458534 -0.12555,-0.191055 -0.18833,-0.412134 -0.18833,-0.663236 0,-0.289313 0.10372,-0.551333 0.31115,-0.786058 0.21289,-0.240185 0.47764,-0.453076 0.79425,-0.638673 -0.42578,-0.278395 -0.75876,-0.633213 -0.99895,-1.064454 -0.23473,-0.436699 -0.35209,-0.933444 -0.35209,-1.490235 0,-0.463993 0.0873,-0.889774 0.26202,-1.277344 0.18014,-0.393029 0.43124,-0.731471 0.75331,-1.015326 0.31661,-0.278395 0.69326,-0.496745 1.12995,-0.655048 0.44216,-0.158303 0.92799,-0.237455 1.45749,-0.237455 0.54587,0 1.03989,0.08461 1.48204,0.253831 0.44216,0.169221 0.81881,0.393029 1.12996,0.671425 0.13647,-0.09826 0.28659,-0.191056 0.45035,-0.278396 0.16922,-0.0928 0.34663,-0.177409 0.53223,-0.253831 0.18013,-0.07096 0.36573,-0.131009 0.55679,-0.180138 0.19105,-0.05459 0.37665,-0.0928 0.55679,-0.114634 v 1.277345 c -0.24565,0 -0.50767,0.02184 -0.78606,0.06551 -0.27294,0.04367 -0.54042,0.117359 -0.80243,0.221078 0.14193,0.201973 0.2511,0.43124 0.32752,0.687801 0.0819,0.256561 0.12282,0.534956 0.12282,0.835187 0,0.480369 -0.0901,0.914338 -0.27021,1.301909 -0.17468,0.387571 -0.42032,0.717824 -0.73693,0.990761 -0.32206,0.278395 -0.70144,0.491286 -1.13814,0.638672 -0.4367,0.147386 -0.91161,0.221079 -1.42473,0.221079 -0.26202,0 -0.50493,-0.01911 -0.72874,-0.05732 -0.22381,-0.03821 -0.45035,-0.09007 -0.67962,-0.155574 -0.18559,0.08188 -0.33571,0.180139 -0.45034,0.294772 -0.11463,0.109175 -0.17195,0.240184 -0.17195,0.393029 0,0.0928 0.0191,0.17468 0.0573,0.245643 0.0437,0.06551 0.1119,0.122824 0.20471,0.171951 0.0928,0.04913 0.21834,0.09007 0.37665,0.122821 0.1583,0.02729 0.35481,0.05186 0.58954,0.07369 l 1.80957,0.155574 c 1.12996,0.07642 1.97607,0.300231 2.53832,0.671425 0.56225,0.365735 0.84337,0.90615 0.84337,1.621245 0,0.420323 -0.10644,0.788787 -0.31933,1.105394 -0.20743,0.322065 -0.49948,0.592273 -0.87613,0.810623 -0.38211,0.218349 -0.84065,0.382111 -1.3756,0.491286 -0.5295,0.109175 -1.11359,0.163762 -1.75226,0.163762 z m -0.0491,-7.164593 c 0.33845,0 0.64414,-0.0464 0.91707,-0.139197 0.27294,-0.09826 0.50494,-0.237455 0.69599,-0.417594 0.19105,-0.174679 0.33844,-0.38757 0.44216,-0.638672 0.10371,-0.256561 0.15557,-0.545874 0.15557,-0.867939 0,-0.644131 -0.19378,-1.154523 -0.58135,-1.531176 -0.38211,-0.376653 -0.93072,-0.56498 -1.64581,-0.56498 -0.3439,0 -0.65505,0.04913 -0.93345,0.147386 -0.27293,0.09826 -0.50493,0.237455 -0.69599,0.417594 -0.19651,0.185597 -0.34663,0.409405 -0.45034,0.671424 -0.10372,0.256561 -0.15558,0.543145 -0.15558,0.859752 0,0.322065 0.0519,0.611378 0.15558,0.867939 0.10917,0.251102 0.26202,0.463993 0.45853,0.638672 0.19651,0.180139 0.43397,0.319337 0.71237,0.417594 0.27839,0.0928 0.58681,0.139197 0.92525,0.139197 z m 0.23746,6.075575 c 0.44216,0 0.83519,-0.03275 1.17909,-0.09826 0.34935,-0.06551 0.64685,-0.155576 0.8925,-0.270208 0.24019,-0.120092 0.42305,-0.262019 0.5486,-0.425781 0.13101,-0.163762 0.19652,-0.34663 0.19652,-0.548603 0,-0.196515 -0.0409,-0.368465 -0.12282,-0.515851 -0.0819,-0.141927 -0.21563,-0.26202 -0.40122,-0.360277 -0.19106,-0.103716 -0.44489,-0.188326 -0.7615,-0.253831 -0.31115,-0.06551 -0.69872,-0.114635 -1.16271,-0.147386 l -1.67856,-0.114633 -0.50766,-0.04913 c -0.42578,0.152845 -0.75058,0.357547 -0.97439,0.614108 -0.21835,0.256561 -0.32752,0.537686 -0.32752,0.843375 0,0.223808 0.0573,0.417593 0.17195,0.581355 0.12009,0.163763 0.30842,0.302961 0.56498,0.417594 0.2511,0.109175 0.57317,0.191056 0.9662,0.245643 0.39303,0.05459 0.86521,0.08188 1.41654,0.08188 z" style="font-style:normal;font-variant:normal;font-weight:normal;font-stretch:normal;font-size:16.76924133px;line-height:1.25;font-family:'Benton Sans';-inkscape-font-specification:'Benton Sans';letter-spacing:0px;word-spacing:0px;fill:#ffffff;stroke-width:0.41923103" id="path910" inkscape:connector-curvature="0" />
         <path sodipodi:nodetypes="scccscccscccscccccsccccccsccccsccccc" d="m 198.9373,66.766821 c -0.52404,0 -1.02897,-0.09553 -1.5148,-0.286583 -0.48037,-0.191056 -0.90615,-0.480369 -1.27734,-0.867939 -0.37119,-0.382112 -0.66869,-0.862481 -0.8925,-1.441107 -0.21835,-0.578626 -0.32753,-1.25278 -0.32753,-2.022462 0,-0.802435 0.12009,-1.492965 0.36028,-2.071591 0.24564,-0.584085 0.56225,-1.064454 0.94982,-1.441107 0.38211,-0.376653 0.81062,-0.652319 1.28553,-0.826999 0.47491,-0.180138 0.94709,-0.270207 1.41654,-0.270207 0.52404,0 1.00987,0.09553 1.45749,0.286584 0.45307,0.185597 0.84337,0.469451 1.17089,0.851563 0.32753,0.38757 0.58409,0.876127 0.76969,1.465671 0.19105,0.584085 0.28658,1.277344 0.28658,2.079779 v 0.294771 h -6.25571 c 0.0109,0.502204 0.0873,0.944362 0.22926,1.326474 0.14739,0.382111 0.34117,0.701447 0.58136,0.958008 0.23473,0.256561 0.51039,0.453075 0.827,0.589544 0.32207,0.131009 0.66597,0.196514 1.0317,0.196514 0.31661,0 0.60319,-0.03002 0.85975,-0.09007 0.25656,-0.06551 0.49129,-0.161035 0.70418,-0.286584 0.21289,-0.120092 0.40667,-0.270207 0.58135,-0.450346 0.18014,-0.180138 0.35482,-0.38484 0.52404,-0.614107 l 0.83519,0.736929 c -0.40941,0.589544 -0.90615,1.050807 -1.49024,1.38379 -0.58408,0.332983 -1.28826,0.499474 -2.11253,0.499475 z m 2.30905,-5.371397 c -0.0273,-0.393029 -0.0955,-0.750577 -0.2047,-1.072642 -0.10918,-0.327524 -0.2593,-0.608649 -0.45035,-0.843375 -0.19651,-0.229267 -0.43397,-0.406676 -0.71236,-0.532227 -0.27294,-0.131009 -0.59228,-0.196514 -0.95801,-0.196514 -0.30023,0 -0.59228,0.05186 -0.87613,0.155574 -0.27839,0.103716 -0.5295,0.264749 -0.75331,0.483098 -0.22927,0.218349 -0.42305,0.494016 -0.58135,0.826999 -0.15831,0.327524 -0.26202,0.720553 -0.31115,1.179087 z" style="font-style:normal;font-variant:normal;font-weight:normal;font-stretch:normal;font-size:16.76924133px;line-height:1.25;font-family:'Benton Sans';-inkscape-font-specification:'Benton Sans';letter-spacing:0px;word-spacing:0px;fill:#ffffff;stroke-width:0.41923103" id="path912" inkscape:connector-curvature="0" />
         <path sodipodi:nodetypes="ccccccccscccscscccc" d="m 204.68536,66.578495 v -8.851343 h 1.4411 v 1.637622 h 0.0328 c 0.16376,-0.256561 0.35209,-0.494016 0.56498,-0.712366 0.21835,-0.223808 0.46672,-0.417593 0.74511,-0.581355 0.2784,-0.163762 0.59228,-0.292042 0.94164,-0.384841 0.34935,-0.09826 0.73965,-0.147386 1.17089,-0.147386 h 0.18014 l -0.0983,1.342849 c -0.0109,-0.0055 -0.0382,-0.0082 -0.0819,-0.0082 -0.0382,-0.0055 -0.0791,-0.0082 -0.12282,-0.0082 h -0.13919 -0.0737 c -0.70963,0 -1.32647,0.17468 -1.85051,0.524039 -0.51858,0.349359 -0.94163,0.840646 -1.26916,1.473859 v 5.715298 z" style="font-style:normal;font-variant:normal;font-weight:normal;font-stretch:normal;font-size:16.76924133px;line-height:1.25;font-family:'Benton Sans';-inkscape-font-specification:'Benton Sans';letter-spacing:0px;word-spacing:0px;fill:#ffffff;stroke-width:0.41923103" id="path914" inkscape:connector-curvature="0" />
      </g>
      <circle style="fill:#ffffff;fill-opacity:1;stroke:none;stroke-width:0.16153847;stroke-miterlimit:4;stroke-dasharray:none" id="path846" cx="53.672623" cy="58.497025" r="1.984375" />
   </g>
</svg>